PathFileType	4	(X/Y/Z)	/Users/itak/Documents/Research/Walk-IL/dataset/trc/00165_00008.trc
DataRate	CameraRate	NumFrames	NumMarkers	Units	OrigDataRate	OrigDataStartFrame	OrigNumFrames
100.000000	100.000000	4	53	mm	100.000000	257	515
Frame#	Time	RPSI			LPSI			L3			STRN			T10			C7			CLAV			RBAK			LBAK			LSHO			LUPA			LAEL			LAOL			LWTS			LWPS			LFRA			LIFD			LHPS			LHTS			RSHO			RUPA			RAEL			RAOL			RWTS			RWPS			RFRA			RIFD			RHTS			RHPS			RBHD			LFHD			RFHD			LBHD			LHIP			RHIP			RASI			LASI			LKNE			LTHI			LANK			LTIP			LTOE			LMT1			LMT5			LHEE			RKNE			RTHI			RANK			RTIP			RTOE			RMT1			RMT5			RHEE			
		X1	Y1	Z1	X2	Y2	Z2	X3	Y3	Z3	X4	Y4	Z4	X5	Y5	Z5	X6	Y6	Z6	X7	Y7	Z7	X8	Y8	Z8	X9	Y9	Z9	X10	Y10	Z10	X11	Y11	Z11	X12	Y12	Z12	X13	Y13	Z13	X14	Y14	Z14	X15	Y15	Z15	X16	Y16	Z16	X17	Y17	Z17	X18	Y18	Z18	X19	Y19	Z19	X20	Y20	Z20	X21	Y21	Z21	X22	Y22	Z22	X23	Y23	Z23	X24	Y24	Z24	X25	Y25	Z25	X26	Y26	Z26	X27	Y27	Z27	X28	Y28	Z28	X29	Y29	Z29	X30	Y30	Z30	X31	Y31	Z31	X32	Y32	Z32	X33	Y33	Z33	X34	Y34	Z34	X35	Y35	Z35	X36	Y36	Z36	X37	Y37	Z37	X38	Y38	Z38	X39	Y39	Z39	X40	Y40	Z40	X41	Y41	Z41	X42	Y42	Z42	X43	Y43	Z43	X44	Y44	Z44	X45	Y45	Z45	X46	Y46	Z46	X47	Y47	Z47	X48	Y48	Z48	X49	Y49	Z49	X50	Y50	Z50	X51	Y51	Z51	X52	Y52	Z52	X53	Y53	Z53	

258	2.57	-1077.122436523438	1013.326293945312	58.74324035644531	-1070.369506835938	1017.335571289062	-64.36490631103516	-1072.595581054688	1055.050659179688	-1.980796933174133	-800.9985961914062	1253.625244140625	16.39662933349609	-1098.830444335938	1218.03955078125	-11.19306373596191	-1016.536804199219	1484.481811523438	-10.79481410980225	-822.3934326171875	1369.102294921875	7.0354323387146	-1101.200805664062	1310.040771484375	87.48316955566406	-1015.280822753906	1458.938232421875	-113.2989807128906	-932.9218139648438	1441.68310546875	-184.6765899658203	-957.70703125	1310.797485351562	-262.5414123535156	-927.860107421875	1098.065551757812	-291.7085571289062	-978.7196044921875	1072.466796875	-224.3097534179688	-788.0574951171875	882.354248046875	-254.7615966796875	-860.346435546875	850.7134399414062	-304.7550048828125	-897.6586303710938	988.6942749023438	-307.2882995605469	-740.1406860351562	704.764892578125	-239.5601501464844	-826.5314331054688	786.0125122070312	-301.219970703125	-761.1895141601562	810.307373046875	-277.80517578125	-970.1465454101562	1454.400390625	174.93359375	-998.7281494140625	1385.800903320312	239.2837219238281	-1032.941040039062	1098.325317382812	281.4998474121094	-1025.032104492188	1091.371704101562	182.0328979492188	-910.8275146484375	862.9131469726562	282.4248352050781	-991.6669311523438	852.0480346679688	316.9884948730469	-1016.40771484375	1025.631469726562	301.9293518066406	-908.6905517578125	672.93701171875	261.9130554199219	-893.47705078125	767.3282470703125	294.8489379882812	-971.1578979492188	767.0447387695312	318.755126953125	-949.83349609375	1638.282348632812	77.75543212890625	-792.96240234375	1686.045532226562	-64.77695465087891	-781.47021484375	1681.7685546875	64.42603302001953	-968.3862915039062	1650.11328125	-58.68121337890625	-966.61865234375	957.3901977539062	-179.8104705810547	-927.45654296875	978.6824340820312	188.5696411132812	-845.4854736328125	1004.347717285156	134.4902191162109	-840.6396484375	993.9520874023438	-124.6912002563477	-1026.515014648438	472.4716491699219	-132.8679809570312	-989.31201171875	612.3460693359375	-160.4272613525391	-1291.007690429688	74.34037017822266	-127.1720962524414	-1151.673217773438	274.4390563964844	-140.8654632568359	-1080.62841796875	40.70842742919922	-98.24839782714844	-1128.08984375	42.39291000366211	-51.38905715942383	-1189.0400390625	38.52046203613281	-162.8028411865234	-1341.933349609375	94.42440795898438	-58.34695434570312	-728.0789794921875	520.6336669921875	168.3742523193359	-807.15380859375	778.7850341796875	196.8843383789062	-671.7271118164062	30.42757797241211	161.3062438964844	-681.164794921875	407.7238464355469	155.5753479003906	-462.1957702636719	87.98656463623047	152.9427642822266	-504.9820251464844	70.12453460693359	101.0727691650391	-566.4854736328125	40.75212097167969	203.4787445068359	-715.4564819335938	32.05786514282227	85.75838470458984	
259	2.58	-1066.222412109375	1014.926025390625	61.09838485717773	-1059.015014648438	1018.455444335938	-62.05624008178711	-1061.602661132812	1056.384521484375	0.2373786121606827	-790.4262084960938	1254.972290039062	18.89505577087402	-1088.210083007812	1219.036865234375	-8.892697334289551	-1006.095581054688	1485.376953125	-8.309474945068359	-812.1278076171875	1370.413940429688	9.484738349914551	-1090.675659179688	1311.086547851562	89.93875122070312	-1004.993347167969	1460.077392578125	-110.7614669799805	-922.7618408203125	1442.814697265625	-182.3229827880859	-948.4202880859375	1311.61181640625	-259.6468200683594	-921.225830078125	1098.455932617188	-287.3744506835938	-971.3681030273438	1073.989379882812	-218.9952239990234	-785.9823608398438	879.5401000976562	-252.2501831054688	-859.77001953125	849.7850341796875	-300.9475402832031	-893.5933227539062	988.67236328125	-303.1423645019531	-742.5474243164062	700.598388671875	-237.8112487792969	-827.6962280273438	784.2879638671875	-297.9972839355469	-761.310791015625	806.83984375	-275.8019714355469	-959.8241577148438	1455.592407226562	177.4438629150391	-988.4618530273438	1387.081176757812	241.8053436279297	-1023.70458984375	1099.781982421875	283.6279602050781	-1015.4365234375	1092.799560546875	184.1654510498047	-903.5750732421875	863.39404296875	285.1176147460938	-984.6100463867188	853.277587890625	319.3511047363281	-1007.731689453125	1027.0478515625	304.111083984375	-903.134521484375	673.3526000976562	264.6217956542969	-887.2142944335938	767.57373046875	297.6221618652344	-964.9408569335938	768.0809936523438	321.202880859375	-939.4638061523438	1639.475341796875	80.54698181152344	-782.7658081054688	1687.26611328125	-62.12497329711914	-771.1245727539062	1682.918212890625	67.06268310546875	-958.1906127929688	1651.3916015625	-55.88273239135742	-955.6932983398438	957.696044921875	-177.4068603515625	-916.263916015625	981.286865234375	190.70263671875	-834.41162109375	1006.456359863281	136.5351715087891	-829.5892944335938	994.7379150390625	-122.5387802124023	-1015.298522949219	472.690185546875	-132.3298034667969	-978.0787963867188	612.8671875	-158.8633880615234	-1288.726318359375	79.5887451171875	-127.2387237548828	-1144.748657226562	276.966796875	-140.6468200683594	-1080.69482421875	40.6898307800293	-98.16577911376953	-1127.293579101562	42.5389289855957	-51.30088043212891	-1188.036743164062	39.74175643920898	-162.5415802001953	-1338.816040039062	101.8275146484375	-58.43282318115234	-717.8457641601562	522.0430297851562	169.9782104492188	-795.8858642578125	780.9842529296875	198.9165802001953	-671.2706909179688	30.57841491699219	161.2989959716797	-672.5350341796875	407.8555603027344	157.0870361328125	-459.6144409179688	83.14742279052734	153.5989837646484	-503.1060791015625	66.65303802490234	101.4989547729492	-565.7974853515625	38.9494743347168	203.7775115966797	-714.5992431640625	33.24027252197266	85.64104461669922	
260	2.59	-1055.26416015625	1016.679565429688	63.42699813842773	-1047.571533203125	1019.747253417969	-59.75989151000977	-1050.550415039062	1057.895751953125	2.465202569961548	-779.9066162109375	1256.64501953125	21.44703483581543	-1077.55712890625	1220.24609375	-6.61207914352417	-995.7425537109375	1486.515014648438	-5.854366779327393	-801.9056396484375	1372.055541992188	11.96603584289551	-1080.180786132812	1312.358764648438	92.36508178710938	-994.7545166015625	1461.478637695312	-108.2424087524414	-912.61669921875	1444.253173828125	-179.9577178955078	-939.0673217773438	1312.77001953125	-256.7990112304688	-914.5303344726562	1099.195068359375	-282.9759826660156	-963.9263305664062	1075.918579101562	-213.5929565429688	-784.1688232421875	877.0614013671875	-249.7216033935547	-859.4390869140625	849.3433837890625	-297.0025024414062	-889.583740234375	989.0709838867188	-298.8883056640625	-745.5775756835938	696.78271484375	-235.9494171142578	-829.2626342773438	783.0218505859375	-294.6209106445312	-761.8160400390625	803.7020263671875	-273.7225341796875	-949.6114501953125	1457.1064453125	179.9188690185547	-978.282470703125	1388.70849609375	244.3204040527344	-1014.386962890625	1101.591796875	285.868408203125	-1005.847961425781	1094.576049804688	186.4143676757812	-896.050537109375	864.313720703125	287.78857421875	-977.2139282226562	854.89599609375	321.8540344238281	-998.8941040039062	1028.824584960938	306.4153137207031	-897.2332153320312	674.2210083007812	267.2842712402344	-880.5996704101562	768.2789916992188	300.3316955566406	-958.3345336914062	769.5230712890625	323.7415771484375	-929.060546875	1640.978271484375	83.35483551025391	-772.5270385742188	1688.6640625	-59.48710632324219	-760.72607421875	1684.2451171875	69.68476104736328	-947.9758911132812	1652.977294921875	-53.07512283325195	-944.5806274414062	958.2612915039062	-174.9751129150391	-905.0737915039062	984.0307006835938	192.9367065429688	-823.3351440429688	1008.918762207031	138.7015686035156	-818.4518432617188	995.7744140625	-120.2240447998047	-1003.281188964844	472.9493713378906	-131.9599761962891	-966.2793579101562	613.5028076171875	-157.3499755859375	-1285.968872070312	85.35331726074219	-126.9406509399414	-1137.19482421875	279.6947631835938	-140.3944854736328	-1080.835083007812	40.67175674438477	-98.07888031005859	-1126.308715820312	42.65067672729492	-51.12408447265625	-1186.932250976562	41.23396301269531	-162.169189453125	-1334.892822265625	109.7935562133789	-58.10017395019531	-708.0044555664062	523.3280029296875	171.5981597900391	-784.8218383789062	783.0690307617188	201.2969970703125	-670.7857666015625	30.79200553894043	161.3299407958984	-664.3193969726562	408.0028381347656	158.4900817871094	-457.4734497070312	79.09797668457031	153.5293121337891	-501.6852416992188	63.81108093261719	101.3777236938477	-565.01318359375	37.75711441040039	203.8178405761719	-713.9190673828125	34.26301956176758	85.79530334472656	
261	2.6	-1044.2529296875	1018.517333984375	65.75713348388672	-1036.101806640625	1021.164855957031	-57.45697784423828	-1039.467407226562	1059.5234375	4.724267959594727	-769.4564819335938	1258.609008789062	24.03442573547363	-1066.887817382812	1221.62353515625	-4.343663215637207	-985.511474609375	1487.876586914062	-3.433560371398926	-791.7391357421875	1373.989868164062	14.46868705749512	-1069.732299804688	1313.807373046875	94.75203704833984	-984.58154296875	1463.09228515625	-105.7478408813477	-902.5109252929688	1445.960205078125	-177.5878601074219	-929.6637573242188	1314.243530273438	-254.0197448730469	-907.7673950195312	1100.246215820312	-278.5478210449219	-956.4033203125	1078.209594726562	-208.1571807861328	-782.5696411132812	874.9412231445312	-247.1763458251953	-859.2766723632812	849.3934326171875	-292.95068359375	-885.5889892578125	989.875244140625	-294.5559997558594	-749.1173095703125	693.406005859375	-233.8986663818359	-831.1282348632812	782.2363891601562	-291.0969543457031	-762.64111328125	800.91943359375	-271.5304870605469	-939.529296875	1458.898315429688	182.3484191894531	-968.2185668945312	1390.633666992188	246.8127593994141	-1004.990844726562	1103.706298828125	288.2286376953125	-996.2810668945312	1096.650268554688	188.7851104736328	-888.2242431640625	865.6279296875	290.4402465820312	-969.4557495117188	856.85595703125	324.5043029785156	-989.8908081054688	1030.913696289062	308.8477478027344	-890.9688110351562	675.4884033203125	269.9002990722656	-873.6060791015625	769.3970336914062	302.9740295410156	-951.3106689453125	771.32177734375	326.3804626464844	-918.6558227539062	1642.755249023438	86.16140747070312	-762.26513671875	1690.208374023438	-56.86942672729492	-750.306884765625	1685.71337890625	72.28411102294922	-937.7679443359375	1654.837280273438	-50.27511596679688	-933.3380737304688	959.0723266601562	-172.5113983154297	-893.8919677734375	986.8117065429688	195.2913055419922	-812.2571411132812	1011.626770019531	141.0050506591797	-807.2863159179688	997.0328369140625	-117.7565383911133	-990.454833984375	473.216064453125	-131.7841033935547	-953.9036865234375	614.2150268554688	-155.9144592285156	-1282.655395507812	91.61669158935547	-126.2128295898438	-1128.978271484375	282.5990600585938	-140.1029815673828	-1081.055908203125	40.64495849609375	-97.99375152587891	-1125.091430664062	42.72597122192383	-50.85359954833984	-1185.71044921875	43.05104827880859	-161.6556854248047	-1330.047119140625	118.2792282104492	-57.26850509643555	-698.6599731445312	524.4132690429688	173.1978912353516	-773.9442138671875	784.9660034179688	203.9774627685547	-670.28271484375	31.03606986999512	161.3955230712891	-656.5782470703125	408.1026000976562	159.7386627197266	-455.7312316894531	75.75239562988281	152.9492034912109	-500.6197814941406	61.52962875366211	100.87744140625	-564.1748657226562	37.05030059814453	203.6788482666016	-713.422607421875	35.12738418579102	86.17536926269531	
